<svg fill="none" height="96" viewBox="0 0 96 96" width="96" xmlns="http://www.w3.org/2000/svg"><g fill="#fff"><path d="m48 0h12v12h-12z"/><path d="m48 60h12v12h-12z"/><path d="m0 0h12v12h-12z"/><path d="m48 24h12v12h-12z"/><path d="m48 84h12v12h-12z"/><path d="m24 84h12v12h-12z"/><path d="m24 60h12v12h-12z"/><path d="m0 24h12v12h-12z"/><path d="m72 0h12v12h-12z"/><path d="m72 48h12v12h-12z"/><path d="m24 0h12v12h-12z"/><path d="m72 24h12v12h-12z"/><path d="m72 72h12v12h-12z"/><path d="m24 24h12v12h-12z"/><path d="m48 12h12v12h-12z"/><path d="m48 72h12v12h-12z"/><path d="m36 72h12v12h-12z"/><path d="m0 12h12v12h-12z"/><path d="m48 36h12v12h-12z"/><path d="m36 48h12v12h-12z"/><path d="m0 48h12v12h-12z"/><path d="m72 12h12v12h-12z"/><path d="m72 60h12v12h-12z"/><path d="m24 12h12v12h-12z"/><path d="m72 36h12v12h-12z"/><path d="m72 84h12v12h-12z"/><path d="m24 48h12v12h-12z"/><path d="m12 60h12v12h-12z"/><path d="m0 72h12v12h-12z"/><path d="m12 84h12v12h-12z"/><path d="m60 0h12v12h-12z"/><path d="m12 0h12v12h-12z"/><path d="m60 24h12v12h-12z"/><path d="m12 24h12v12h-12z"/><path d="m84 0h12v12h-12z"/><path d="m84 48h12v12h-12z"/><path d="m36 0h12v12h-12z"/><path d="m84 24h12v12h-12z"/><path d="m84 72h12v12h-12z"/><path d="m36 24h12v12h-12z"/><path d="m60 12h12v12h-12z"/><path d="m60 72h12v12h-12z"/><path d="m12 12h12v12h-12z"/><path d="m60 36h12v12h-12z"/><path d="m60 48h12v12h-12z"/><path d="m12 36h12v12h-12z"/><path d="m84 12h12v12h-12z"/><path d="m84 60h12v12h-12z"/><path d="m36 12h12v12h-12z"/><path d="m84 36h12v12h-12z"/><path d="m84 84h12v12h-12z"/><path d="m36 36h12v12h-12z"/></g></svg>