<svg width="83" height="47" viewBox="0 0 83 47" fill="none" xmlns="http://www.w3.org/2000/svg">
<path d="M48.279 46.08C47.6817 46.08 47.383 45.8667 47.383 45.44C47.383 44.9707 47.8097 44.672 48.663 44.544L49.943 44.352C50.8817 44.224 51.5217 44.0107 51.863 43.712C52.247 43.3707 52.5243 42.752 52.695 41.856L61.399 4.224C61.5697 3.49867 61.591 2.944 61.463 2.56C61.335 2.176 60.7803 1.89867 59.799 1.728L58.519 1.472C57.9643 1.344 57.687 1.10933 57.687 0.768002C57.687 0.256001 58.071 0 58.839 0H71.319C74.8603 0 77.5697 0.96 79.447 2.88C81.3243 4.8 82.263 7.21067 82.263 10.112C82.263 12.8 81.559 15.296 80.151 17.6C78.7857 19.8613 76.8657 21.696 74.391 23.104C71.959 24.512 69.1003 25.216 65.815 25.216H62.039C61.3563 25.216 60.9083 25.5787 60.695 26.304L57.111 41.6C56.8977 42.5387 56.9403 43.1787 57.239 43.52C57.5803 43.8613 58.2843 44.096 59.351 44.224L62.423 44.608C62.807 44.6507 62.999 44.864 62.999 45.248C62.999 45.8027 62.615 46.08 61.847 46.08H48.279ZM62.167 20.096C61.911 21.2053 62.0177 22.08 62.487 22.72C62.999 23.3173 64.0443 23.616 65.623 23.616C67.7563 23.616 69.5697 23.168 71.063 22.272C72.599 21.376 73.8363 20.224 74.775 18.816C75.7563 17.3653 76.4603 15.8293 76.887 14.208C77.3563 12.544 77.591 10.9653 77.591 9.472C77.591 7.12533 76.9723 5.22667 75.735 3.776C74.4977 2.32533 72.6843 1.6 70.295 1.6C67.6923 1.6 66.199 2.45333 65.815 4.16L62.167 20.096Z" fill="white"/>
<path d="M40.277 46.08C39.637 46.08 39.317 45.8454 39.317 45.376C39.317 44.992 39.5944 44.736 40.149 44.608L40.917 44.48C41.9837 44.3094 42.6664 44.0534 42.965 43.712C43.2637 43.328 43.413 42.688 43.413 41.792V20.288C43.413 19.52 43.285 19.008 43.029 18.752C42.8157 18.4533 42.4104 18.2614 41.813 18.176L40.469 17.984C39.9144 17.9413 39.637 17.7067 39.637 17.28C39.637 16.9387 39.9784 16.704 40.661 16.576C41.9837 16.3627 43.0504 16.0214 43.861 15.552C44.6717 15.0827 45.461 14.5067 46.229 13.824C46.613 13.44 46.933 13.248 47.189 13.248C47.573 13.248 47.765 13.504 47.765 14.016V41.792C47.765 42.688 47.893 43.328 48.149 43.712C48.405 44.096 48.8957 44.3307 49.621 44.416L51.221 44.608C51.6904 44.6933 51.925 44.928 51.925 45.312C51.925 45.824 51.605 46.08 50.965 46.08H40.277Z" fill="white"/>
<path d="M48.349 9.40002C48.989 10.04 49.757 10.36 50.653 10.36C51.549 10.36 52.2957 10.04 52.893 9.40002C53.4903 8.76002 53.789 7.94935 53.789 6.96801C53.789 5.98668 53.4903 5.19735 52.893 4.60001C52.2957 3.96001 51.549 3.64001 50.653 3.64001C49.757 3.64001 48.989 3.96001 48.349 4.60001C47.7517 5.19735 47.453 5.98668 47.453 6.96801C47.453 7.94935 47.7517 8.76002 48.349 9.40002Z" fill="white"/>
<path d="M28.8 46.72C28.6293 46.72 28.4587 46.656 28.288 46.528C28.1173 46.4 27.9893 46.1227 27.904 45.696L22.976 25.856C22.9333 25.5147 22.8053 25.3653 22.592 25.408C22.3787 25.408 22.2293 25.5573 22.144 25.856L16.64 45.696C16.512 46.1227 16.3627 46.4 16.192 46.528C16.064 46.656 15.9147 46.72 15.744 46.72C15.5733 46.72 15.3813 46.656 15.168 46.528C14.9973 46.4 14.8693 46.1227 14.784 45.696L4.672 5.12C4.37333 3.92533 4.032 3.09333 3.648 2.624C3.30667 2.15467 2.70933 1.83467 1.856 1.664L0.896 1.472C0.298667 1.344 0 1.06667 0 0.639999C0 0.213333 0.32 0 0.96 0H11.264C11.8613 0 12.16 0.234666 12.16 0.703999C12.16 1.088 11.84 1.344 11.2 1.472L10.496 1.6C9.77067 1.728 9.30133 1.984 9.088 2.368C8.91733 2.70933 8.93867 3.34933 9.152 4.288L16.704 35.52C16.7893 35.8187 16.9173 35.968 17.088 35.968C17.3013 35.968 17.4507 35.8187 17.536 35.52L20.416 25.088C20.8853 23.4667 21.12 21.9733 21.12 20.608C21.12 19.2427 20.9067 17.728 20.48 16.064L17.792 5.12C17.4933 3.92533 17.1947 3.072 16.896 2.56C16.64 2.048 16.2773 1.74933 15.808 1.664L14.848 1.472C14.2507 1.344 13.952 1.06667 13.952 0.639999C13.952 0.213333 14.272 0 14.912 0H23.68C24.2773 0 24.576 0.234666 24.576 0.703999C24.576 1.088 24.256 1.344 23.616 1.472L22.912 1.6C22.3573 1.68533 22.016 1.92 21.888 2.304C21.8027 2.688 21.8667 3.34933 22.08 4.288L24.256 13.44C24.3413 13.7387 24.4693 13.888 24.64 13.888C24.8533 13.888 25.0027 13.7387 25.088 13.44L27.392 5.632C27.8613 4.01067 28.032 2.944 27.904 2.432C27.8187 1.92 27.584 1.64267 27.2 1.6L26.496 1.472C25.856 1.344 25.536 1.088 25.536 0.703999C25.536 0.234666 25.8347 0 26.432 0H32.512C33.2373 0 33.6 0.234666 33.6 0.703999C33.6 1.13066 33.2373 1.38667 32.512 1.472L31.808 1.536C31.2533 1.57867 30.784 1.92 30.4 2.56C30.0587 3.2 29.6747 4.24533 29.248 5.696L26.816 14.08C26.3467 15.6587 26.0907 17.152 26.048 18.56C26.048 19.9253 26.24 21.44 26.624 23.104L29.504 35.136C29.5893 35.4347 29.7173 35.584 29.888 35.584C30.1013 35.584 30.2293 35.4347 30.272 35.136L37.632 5.632C38.2293 3.15733 37.8453 1.81333 36.48 1.6L35.776 1.472C35.136 1.344 34.816 1.06667 34.816 0.639999C34.816 0.213333 35.1147 0 35.712 0H42.88C43.6053 0 43.968 0.234666 43.968 0.703999C43.968 1.13066 43.6053 1.38667 42.88 1.472L42.176 1.536C41.6213 1.57867 41.1307 1.92 40.704 2.56C40.32 3.15733 39.9573 4.20267 39.616 5.696L29.696 45.696C29.6107 46.1227 29.4827 46.4 29.312 46.528C29.1413 46.656 28.9707 46.72 28.8 46.72Z" fill="white"/>
</svg>
