<svg width="750" height="517" viewBox="0 0 750 517" fill="none" xmlns="http://www.w3.org/2000/svg">
<g clip-path="url(#clip0_35_21998)">
<path d="M747.027 267.732L747.007 85.5968C747.026 61.2161 725.772 39.9816 701.388 40.0204L628.621 40.0205C604.083 40.0205 575.821 69.5608 562.917 108.771L532.119 202.418C531.39 204.681 530.449 206.772 529.585 208.94V85.5951C529.585 60.4665 509.156 40.0182 484.004 40.0187C484.004 40.0187 483.985 39.9995 483.966 40.0187L411.199 40.0187C387.026 39.9995 358.187 70.2307 345.513 108.788L314.697 202.416C313.987 204.661 313.046 206.713 312.201 208.861V85.5951C312.182 60.4857 291.772 40.0182 266.621 40.0187C266.621 40.0187 266.601 39.9995 266.582 40.0187L193.815 40.0187C169.642 39.9995 140.803 70.2308 128.13 108.788L97.3133 202.416C96.5837 204.68 95.6237 206.751 94.7981 208.881L94.7391 49.2266C94.7391 44.1242 90.5919 39.9808 85.504 40.0001L12.7365 40.0001C10.2597 40.0193 7.91737 40.9784 6.17016 42.7239C4.44218 44.4503 3.4629 46.8097 3.44373 49.2459L3.46341 231.381C3.44424 243.561 8.18642 255.013 16.8263 263.645C25.4471 272.258 36.9093 276.995 49.1015 276.976L121.869 276.976C146.041 276.995 174.88 246.764 187.554 208.206L218.37 114.579C219.1 112.354 220.022 110.282 220.847 108.153L220.847 231.38C220.828 243.56 225.57 255.012 234.191 263.625C242.812 272.237 254.274 276.975 266.485 276.975L339.253 276.975C363.425 276.994 392.264 246.763 404.938 208.205L435.754 114.578C436.465 112.333 437.405 110.281 438.25 108.132V231.399C438.25 243.943 443.357 255.376 451.613 263.625C459.869 271.873 471.274 277.014 483.869 276.975L556.637 276.975C580.79 276.975 609.667 246.782 622.341 208.224L653.138 114.578C653.887 112.295 654.828 110.242 655.692 108.075V267.748C655.692 270.319 656.748 272.602 658.418 274.27C660.088 275.939 662.392 276.975 664.946 276.994H737.713C740.171 276.994 742.513 275.997 744.241 274.27C746.065 272.525 747.025 270.185 747.025 267.729L747.027 267.732ZM21.9572 231.364L21.9424 58.4755L76.2396 58.4755L76.2396 240.512C66.7547 251.753 56.6174 258.505 49.0714 258.524C34.6134 258.505 21.9804 245.845 21.9612 231.363L21.9572 231.364ZM170.047 202.416C159.199 235.466 135.967 258.485 121.915 258.482H84.8594C87.1442 256.161 89.3522 253.495 91.5216 250.829C91.9824 250.407 92.3856 249.927 92.7504 249.41C101.813 237.977 109.665 223.802 114.811 208.149L145.628 114.521C156.476 81.4704 179.708 58.4519 193.76 58.4543L230.815 58.4543C228.492 60.8137 226.265 63.4992 224.076 66.1849C223.653 66.5685 223.289 67.0097 222.962 67.4509C213.881 78.9024 206.009 93.0972 200.863 108.75L170.047 202.416ZM239.398 231.381L239.383 76.4852C248.868 65.2444 259.005 58.4925 266.551 58.473C281.489 58.473 293.7 70.6347 293.7 85.5964V240.507C284.215 251.747 274.078 258.499 266.532 258.519C252.055 258.481 239.364 245.878 239.402 231.376L239.398 231.381ZM387.448 202.433C376.6 235.484 353.368 258.502 339.316 258.5L302.261 258.5C304.546 256.179 306.754 253.512 308.923 250.846C309.384 250.424 309.787 249.945 310.152 249.427C319.214 237.994 327.067 223.819 332.213 208.166L363.029 114.538C373.877 81.4876 397.109 58.4691 411.161 58.4715L448.217 58.4715C445.913 60.8118 443.685 63.4972 441.496 66.183C441.074 66.5666 440.728 66.9886 440.383 67.449C431.282 78.8813 423.429 93.0953 418.245 108.786L387.448 202.433ZM456.819 231.379L456.819 76.4685C466.284 65.2468 476.441 58.4759 483.987 58.4564C498.924 58.4564 511.135 70.6563 511.135 85.5796L511.096 240.529C501.63 251.751 491.474 258.522 483.928 258.503C468.991 258.503 456.799 246.321 456.819 231.379ZM604.908 202.431C594.041 235.462 570.809 258.481 556.776 258.498L519.721 258.498C522.006 256.177 524.214 253.51 526.402 250.825C526.863 250.403 527.247 249.943 527.593 249.444C536.693 238.012 544.527 223.817 549.692 208.183L580.469 114.556C591.337 81.4861 614.568 58.5059 628.601 58.4892L665.312 58.4892C653.062 70.8425 642.33 88.5474 635.648 108.804L604.908 202.431ZM674.241 258.501V76.4646C683.726 65.2237 693.863 58.4719 701.39 58.4716C715.906 58.4716 728.539 71.0933 728.52 85.5757L728.534 258.464L674.241 258.501Z" fill="url(#paint0_linear_35_21998)"/>
<path d="M0 398.507C0 386.254 2.42523 375.387 7.2757 365.906C12.2732 356.424 18.9609 349.131 27.339 344.025C35.8641 338.92 45.3445 336.367 55.7804 336.367C64.8934 336.367 72.8305 338.191 79.5918 341.837C86.5 345.484 92.0119 350.079 96.1275 355.622V338.336H127.215V459.553H96.1275V441.83C92.1589 447.519 86.647 452.26 79.5918 456.053C72.6835 459.699 64.6729 461.523 55.5599 461.523C45.271 461.523 35.8641 458.897 27.339 453.646C18.9609 448.395 12.2732 441.028 7.2757 431.547C2.42523 421.919 0 410.906 0 398.507ZM96.1275 398.945C96.1275 391.506 94.6576 385.16 91.7179 379.909C88.7783 374.512 84.8097 370.428 79.8122 367.656C74.8148 364.739 69.4499 363.28 63.7175 363.28C57.9851 363.28 52.6937 364.666 47.8433 367.437C42.9928 370.209 39.0242 374.293 35.9376 379.69C32.9979 384.942 31.528 391.214 31.528 398.507C31.528 405.801 32.9979 412.219 35.9376 417.762C39.0242 423.159 42.9928 427.316 47.8433 430.234C52.8407 433.151 58.1321 434.61 63.7175 434.61C69.4499 434.61 74.8148 433.224 79.8122 430.453C84.8097 427.535 88.7783 423.451 91.7179 418.2C94.6576 412.803 96.1275 406.384 96.1275 398.945Z" fill="black"/>
<path d="M309.049 336.586C324.041 336.586 336.094 341.181 345.207 350.371C354.467 359.414 359.096 372.105 359.096 388.442V459.553H328.23V392.6C328.23 383.118 325.805 375.898 320.954 370.938C316.104 365.833 309.489 363.28 301.111 363.28C292.733 363.28 286.046 365.833 281.048 370.938C276.198 375.898 273.772 383.118 273.772 392.6V459.553H242.906V392.6C242.906 383.118 240.481 375.898 235.63 370.938C230.78 365.833 224.165 363.28 215.787 363.28C207.262 363.28 200.501 365.833 195.503 370.938C190.653 375.898 188.228 383.118 188.228 392.6V459.553H157.361V338.336H188.228V352.996C192.196 347.891 197.267 343.879 203.441 340.962C209.761 338.045 216.669 336.586 224.165 336.586C233.719 336.586 242.244 338.628 249.741 342.712C257.237 346.651 263.043 352.34 267.158 359.779C271.127 352.777 276.859 347.161 284.355 342.931C291.998 338.701 300.229 336.586 309.049 336.586Z" fill="black"/>
<path d="M419.254 355.841C423.222 350.298 428.661 345.703 435.569 342.056C442.624 338.263 450.635 336.367 459.601 336.367C470.037 336.367 479.444 338.92 487.822 344.025C496.347 349.131 503.034 356.424 507.885 365.906C512.882 375.241 515.381 386.108 515.381 398.507C515.381 410.906 512.882 421.919 507.885 431.547C503.034 441.028 496.347 448.395 487.822 453.646C479.444 458.897 470.037 461.523 459.601 461.523C450.635 461.523 442.698 459.699 435.789 456.053C429.028 452.406 423.516 447.811 419.254 442.268V517.318H388.387V338.336H419.254V355.841ZM483.853 398.507C483.853 391.214 482.31 384.942 479.223 379.69C476.283 374.293 472.315 370.209 467.318 367.437C462.467 364.666 457.176 363.28 451.443 363.28C445.858 363.28 440.566 364.739 435.569 367.656C430.718 370.428 426.75 374.512 423.663 379.909C420.724 385.306 419.254 391.652 419.254 398.945C419.254 406.238 420.724 412.584 423.663 417.981C426.75 423.378 430.718 427.535 435.569 430.453C440.566 433.224 445.858 434.61 451.443 434.61C457.176 434.61 462.467 433.151 467.318 430.234C472.315 427.316 476.283 423.159 479.223 417.762C482.31 412.365 483.853 405.947 483.853 398.507Z" fill="black"/>
<path d="M566.611 357.153C570.58 350.735 575.724 345.703 582.045 342.056C588.512 338.409 595.861 336.586 604.092 336.586V368.75H595.935C586.234 368.75 578.885 371.011 573.887 375.533C569.037 380.055 566.611 387.932 566.611 399.164V459.553H535.745V338.336H566.611V357.153Z" fill="black"/>
<path d="M750 338.336L674.377 516.88H641.526L667.983 456.49L619.037 338.336H653.652L685.18 423.013L717.149 338.336H750Z" fill="black"/>
</g>
<defs>
<linearGradient id="paint0_linear_35_21998" x1="747.027" y1="57.0636" x2="623.868" y2="419.898" gradientUnits="userSpaceOnUse">
<stop stop-color="#000AFF"/>
<stop offset="1" stop-color="#474DDC"/>
</linearGradient>
<clipPath id="clip0_35_21998">
<rect width="750" height="517" fill="white"/>
</clipPath>
</defs>
</svg>
