<svg width="3681" height="760" viewBox="0 0 3681 760" fill="none" xmlns="http://www.w3.org/2000/svg">
<path d="M786.099 434.608L803.875 107.882C805.371 80.3882 783.481 57.2741 755.946 57.2741H392.309C373.603 57.2741 356.601 46.407 348.746 29.4302L348.012 27.844C340.157 10.8671 323.155 0 304.449 0H82.9355C55.1693 0 33.1948 23.4881 35.0418 51.1929L60.6418 435.193C62.3228 460.407 83.2653 480 108.536 480H738.17C763.666 480 784.713 460.067 786.099 434.608Z" fill="#555555"/>
<path d="M56.986 591.714L0.585976 215.714C-4.12994 184.274 20.2195 156 52.0107 156H795.247C827.038 156 851.388 184.274 846.672 215.714L790.272 591.714C786.454 617.169 764.587 636 738.847 636H677.129C666.083 636 657.129 644.954 657.129 656V744.293C657.129 758.467 639.286 764.734 630.423 753.673L551.741 655.483C541.872 643.167 526.944 636 511.162 636H108.411C82.6709 636 60.8042 617.169 56.986 591.714Z" fill="#111111"/>
<path d="M3534.85 597.969C3500.32 597.969 3470.44 589.779 3445.2 573.398C3420.19 556.797 3400.82 534.108 3387.1 505.332C3373.59 476.556 3366.84 443.685 3366.84 406.719C3366.84 368.867 3373.81 335.553 3387.76 306.777C3401.71 277.78 3421.18 255.091 3446.2 238.711C3471.43 222.331 3500.76 214.141 3534.19 214.141C3560.31 214.141 3583.77 219.01 3604.58 228.75C3625.61 238.268 3642.76 251.771 3656.04 269.258C3669.54 286.745 3677.84 307.109 3680.94 330.352H3623.83C3620.96 319.062 3615.76 308.438 3608.23 298.477C3600.7 288.516 3590.74 280.547 3578.35 274.57C3566.17 268.372 3551.67 265.273 3534.85 265.273C3512.71 265.273 3493.35 271.029 3476.74 282.539C3460.14 294.049 3447.19 310.319 3437.9 331.348C3428.6 352.155 3423.95 376.615 3423.95 404.727C3423.95 433.281 3428.49 458.294 3437.56 479.766C3446.64 501.016 3459.48 517.507 3476.08 529.238C3492.9 540.97 3512.49 546.836 3534.85 546.836C3557.21 546.836 3576.35 541.081 3592.29 529.57C3608.23 517.839 3618.74 501.901 3623.83 481.758H3680.94C3677.84 503.672 3669.88 523.372 3657.04 540.859C3644.42 558.346 3627.71 572.292 3606.9 582.695C3586.31 592.878 3562.3 597.969 3534.85 597.969Z" fill="black"/>
<path d="M3268.88 590V218.789H3325.32V590H3268.88ZM3297.43 157.031C3286.37 157.031 3276.85 153.268 3268.88 145.742C3260.91 138.216 3256.93 129.141 3256.93 118.516C3256.93 107.891 3260.91 98.8151 3268.88 91.2891C3276.85 83.763 3286.37 80 3297.43 80C3308.5 80 3318.02 83.763 3325.99 91.2891C3333.96 98.8151 3337.94 107.891 3337.94 118.516C3337.94 129.141 3333.96 138.216 3325.99 145.742C3318.02 153.268 3308.5 157.031 3297.43 157.031Z" fill="black"/>
<path d="M3049.39 736.758C3008 736.758 2975.24 729.232 2951.11 714.18C2927.21 699.128 2909.5 681.862 2897.99 662.383L2943.14 630.508C2948.23 637.37 2954.76 645.117 2962.73 653.75C2970.7 662.604 2981.55 670.241 2995.27 676.66C3009 683.079 3027.04 686.289 3049.39 686.289C3079.28 686.289 3103.96 679.095 3123.44 664.707C3143.14 650.319 3152.99 627.63 3152.99 596.641V521.602H3147.68C3143.69 528.242 3137.82 536.543 3130.08 546.504C3122.55 556.243 3111.59 564.987 3097.21 572.734C3083.04 580.26 3063.78 584.023 3039.43 584.023C3009.55 584.023 2982.77 576.94 2959.08 562.773C2935.4 548.607 2916.58 528.021 2902.64 501.016C2888.91 474.01 2882.05 441.25 2882.05 402.734C2882.05 364.661 2888.69 331.569 2901.97 303.457C2915.47 275.124 2934.18 253.21 2958.09 237.715C2981.99 221.999 3009.55 214.141 3040.76 214.141C3064.89 214.141 3084.04 218.125 3098.2 226.094C3112.59 234.062 3123.55 243.138 3131.07 253.32C3138.82 263.281 3144.8 271.471 3149 277.891H3154.98V218.789H3209.43V600.625C3209.43 632.5 3202.24 658.398 3187.85 678.32C3173.68 698.464 3154.43 713.184 3130.08 722.48C3105.95 731.999 3079.06 736.758 3049.39 736.758ZM3047.4 532.891C3081.71 532.891 3107.94 521.27 3126.09 498.027C3144.47 474.785 3153.65 442.578 3153.65 401.406C3153.65 374.622 3149.67 351.048 3141.7 330.684C3133.73 310.319 3121.78 294.382 3105.84 282.871C3090.12 271.139 3070.64 265.273 3047.4 265.273C3023.27 265.273 3003.13 271.471 2986.97 283.867C2971.03 296.042 2959.08 312.422 2951.11 333.008C2943.14 353.594 2939.16 376.393 2939.16 401.406C2939.16 427.083 2943.14 449.883 2951.11 469.805C2959.3 489.505 2971.48 505 2987.64 516.289C3003.79 527.357 3023.72 532.891 3047.4 532.891Z" fill="black"/>
<path d="M2689.79 597.969C2656.37 597.969 2627.04 590 2601.8 574.062C2576.57 558.125 2556.87 535.768 2542.7 506.992C2528.76 478.216 2521.78 444.792 2521.78 406.719C2521.78 367.982 2528.76 334.225 2542.7 305.449C2556.87 276.452 2576.57 253.984 2601.8 238.047C2627.04 222.109 2656.37 214.141 2689.79 214.141C2723.44 214.141 2752.88 222.109 2778.11 238.047C2803.35 253.984 2823.05 276.452 2837.21 305.449C2851.38 334.225 2858.46 367.982 2858.46 406.719C2858.46 444.792 2851.38 478.216 2837.21 506.992C2823.05 535.768 2803.35 558.125 2778.11 574.062C2752.88 590 2723.44 597.969 2689.79 597.969ZM2689.79 546.836C2715.47 546.836 2736.5 540.306 2752.88 527.246C2769.26 514.186 2781.43 497.031 2789.4 475.781C2797.37 454.31 2801.35 431.289 2801.35 406.719C2801.35 381.706 2797.37 358.464 2789.4 336.992C2781.43 315.521 2769.26 298.255 2752.88 285.195C2736.5 271.914 2715.47 265.273 2689.79 265.273C2664.56 265.273 2643.75 271.914 2627.37 285.195C2610.99 298.255 2598.81 315.521 2590.85 336.992C2582.88 358.464 2578.89 381.706 2578.89 406.719C2578.89 431.289 2582.88 454.31 2590.85 475.781C2598.81 497.031 2610.99 514.186 2627.37 527.246C2643.75 540.306 2664.56 546.836 2689.79 546.836Z" fill="black"/>
<path d="M2209.99 590V95.2734H2269.76V536.875H2500.19V590H2209.99Z" fill="black"/>
<path d="M1863.32 597.969C1827.69 597.969 1796.81 590 1770.69 574.062C1744.79 558.125 1724.87 535.879 1710.92 507.324C1696.98 478.548 1690 445.234 1690 407.383C1690 369.31 1696.87 335.775 1710.59 306.777C1724.31 277.78 1743.57 255.091 1768.36 238.711C1793.38 222.331 1822.6 214.141 1856.02 214.141C1875.28 214.141 1894.43 217.35 1913.46 223.77C1932.5 230.189 1949.76 240.592 1965.26 254.98C1980.97 269.368 1993.48 288.405 2002.78 312.09C2012.07 335.775 2016.72 364.883 2016.72 399.414V423.984H1730.51V374.844H1985.84L1959.61 393.438C1959.61 368.646 1955.74 346.621 1947.99 327.363C1940.25 308.105 1928.62 292.943 1913.13 281.875C1897.86 270.807 1878.82 265.273 1856.02 265.273C1833.22 265.273 1813.63 270.918 1797.25 282.207C1781.09 293.275 1768.7 307.773 1760.06 325.703C1751.43 343.633 1747.11 362.891 1747.11 383.477V416.016C1747.11 444.128 1751.98 467.923 1761.72 487.402C1771.46 506.882 1785.08 521.712 1802.56 531.895C1820.05 541.855 1840.3 546.836 1863.32 546.836C1878.16 546.836 1891.66 544.733 1903.83 540.527C1916.01 536.1 1926.52 529.57 1935.38 520.938C1944.23 512.083 1950.98 501.237 1955.63 488.398L2010.75 504.336C2004.99 522.93 1995.25 539.31 1981.53 553.477C1968.03 567.422 1951.2 578.379 1931.06 586.348C1910.92 594.095 1888.34 597.969 1863.32 597.969Z" fill="black"/>
<path d="M1648.49 95.2734V590H1592.04V95.2734H1648.49Z" fill="black"/>
<path d="M1476.15 590V218.789H1532.6V590H1476.15ZM1504.7 157.031C1493.64 157.031 1484.12 153.268 1476.15 145.742C1468.18 138.216 1464.2 129.141 1464.2 118.516C1464.2 107.891 1468.18 98.8151 1476.15 91.2891C1484.12 83.763 1493.64 80 1504.7 80C1515.77 80 1525.29 83.763 1533.26 91.2891C1541.23 98.8151 1545.21 107.891 1545.21 118.516C1545.21 129.141 1541.23 138.216 1533.26 145.742C1525.29 153.268 1515.77 157.031 1504.7 157.031Z" fill="black"/>
<path d="M1129.83 590V95.2734H1426.66V148.398H1189.59V321.055H1404.09V374.18H1189.59V590H1129.83Z" fill="black"/>
</svg>
