<svg width="771" height="116" viewBox="0 0 771 116" fill="none" xmlns="http://www.w3.org/2000/svg">
<path d="M687.661 27.9091H711.69L716.027 54.6337V98.5007H692.115V51.0001L687.661 27.9091ZM740.642 25.9165C747.049 25.9165 752.519 27.2058 757.052 29.7845C761.584 32.3632 765.022 35.9968 767.366 40.6853C769.789 45.3739 771 50.9219 771 57.3296V98.5007H747.088V60.846C747.088 55.8449 745.799 52.0159 743.22 49.3591C740.72 46.7023 737.086 45.3739 732.32 45.3739C729.038 45.3739 726.146 46.0771 723.646 47.4837C721.223 48.8903 719.348 50.8829 718.02 53.4616C716.691 56.0402 716.027 59.0878 716.027 62.6042L708.642 58.7361C709.58 51.6252 711.573 45.6474 714.62 40.8026C717.668 35.8796 721.419 32.1679 725.873 29.6673C730.327 27.1668 735.25 25.9165 740.642 25.9165Z" fill="#172554"/>
<path d="M654.251 30.1419L666.353 32.4802L678.338 30.1419V97.9537H654.251V30.1419ZM666.236 24.6468C662.084 24.6468 658.716 23.6335 656.131 21.6069C653.546 19.5024 652.253 16.6574 652.253 13.072C652.253 9.56447 653.546 6.75846 656.131 4.65395C658.716 2.54945 662.084 1.49719 666.236 1.49719C670.544 1.49719 673.951 2.54945 676.458 4.65395C679.043 6.75846 680.336 9.56447 680.336 13.072C680.336 16.6574 679.043 19.5024 676.458 21.6069C673.951 23.6335 670.544 24.6468 666.236 24.6468Z" fill="#172554"/>
<path d="M578.015 44.8074H641.779V65.3197H578.015V44.8074ZM644.006 8.823V29.3353H578.836L590.44 17.7312V96.7328H566.177V8.823H644.006Z" fill="#172554"/>
<path d="M480.556 16.9814C475.945 16.9814 472.624 17.7054 470.593 19.1533C468.639 20.6013 467.662 22.9257 467.662 26.1264V96.4753H443.634V28.9366C443.634 22.6113 444.923 18.4293 447.502 14.0092C450.08 9.58911 453.87 6.23592 458.871 3.94966C463.951 1.66339 470.241 0.520264 477.743 0.520264C480.712 0.520264 483.408 0.748889 485.83 1.20614C488.331 1.66339 490.792 2.31117 493.215 3.14947V18.5818C491.261 18.0483 489.23 17.6672 487.12 17.4386C485.088 17.1338 482.9 16.9814 480.556 16.9814ZM415.385 46.4742V27.3362H492.277V46.4742H415.385ZM485.713 46.4742V27.3362H499.779L509.742 8.40788H523.339V26.4217H551.47V45.5597H523.339V68.3178C523.339 72.9665 524.315 76.2816 526.269 78.263C528.222 80.1683 531.817 81.1209 537.053 81.1209C540.256 81.1209 543.109 80.8541 545.609 80.3207C548.188 79.711 550.532 78.9108 552.642 77.9201L552.759 95.7529C550.258 96.6675 547.094 97.4677 543.265 98.1535C539.514 98.9156 535.568 99.2967 531.426 99.2967C524.081 99.2967 518.025 98.1916 513.258 95.9816C508.57 93.7715 505.092 90.6089 502.826 86.4936C500.56 82.3021 499.427 77.4247 499.427 71.8615V46.4742H485.713Z" fill="#172554"/>
<path d="M377.595 115.506C372.672 115.506 368.296 114.881 364.467 113.631C360.638 112.459 356.927 110.622 353.332 108.122V91.4776C357.005 93.8219 360.443 95.5019 363.647 96.5177C366.851 97.5336 370.367 98.0415 374.196 98.0415C377.4 98.0415 380.252 97.3382 382.753 95.9317C385.253 94.5251 387.285 91.9464 388.848 88.1956L414.517 27.3621H439.953L407.836 95.58C405.57 100.503 402.796 104.41 399.514 107.301C396.31 110.271 392.833 112.381 389.082 113.631C385.331 114.881 381.502 115.506 377.595 115.506ZM378.416 88.0784L349.933 27.3621H376.306L401.507 88.0784H378.416Z" fill="#172554"/>
<path d="M315.846 80.8112H308.344L327.332 27.3621H351.244L326.16 94.2907H301.78L280.799 38.7317H288.769L267.554 94.2907H243.173L218.09 27.3621H242.236L261.107 80.8112H253.605L273.414 27.3621H296.271L315.846 80.8112Z" fill="#172554"/>
<path fill-rule="evenodd" clip-rule="evenodd" d="M153.487 77.4413H153.182H147.383H123.574H44.2107L59.7781 96.9768H168.75L168.745 96.9705C169.115 96.9747 169.486 96.9768 169.86 96.9768C178.665 96.9768 186.38 95.7444 193.003 93.2796C199.627 90.7377 204.769 87.233 208.432 82.7655C212.094 78.2209 213.925 72.9061 213.925 66.8211C213.925 61.8914 212.796 57.7705 210.536 54.4584C208.276 51.1463 204.653 48.5659 199.666 46.7172C194.678 44.7916 188.016 43.4436 179.678 42.6734L162.262 40.9403C157.275 40.4781 153.808 39.6308 151.86 38.3984C149.99 37.166 149.055 35.5484 149.055 33.5458C149.055 30.7728 150.652 28.6931 153.847 27.3067C157.042 25.8432 161.366 25.1114 166.821 25.1114C170.873 25.1114 174.341 25.535 177.224 26.3823C180.107 27.1526 182.367 28.308 184.003 29.8485C185.717 31.312 186.73 33.0836 187.042 35.1633H211.588C211.276 29.4634 209.172 24.4567 205.276 20.1432C201.458 15.8297 196.276 12.5176 189.73 10.2068C183.185 7.81903 175.704 6.62512 167.289 6.62512C158.717 6.62512 151.197 7.70349 144.73 9.86022C138.34 11.9399 133.353 15.0595 129.769 19.2189C126.262 23.3783 124.509 28.462 124.509 34.4701C124.509 41.8646 127.236 47.7571 132.691 52.1476C138.145 56.4611 146.912 59.157 158.99 60.2353L175.354 61.7373C180.886 62.2765 184.626 63.1623 186.574 64.3948C188.523 65.6272 189.497 67.3603 189.497 69.594C189.497 72.521 187.782 74.7548 184.354 76.2953C181.464 77.5287 177.869 77.4971 173.265 77.4567C172.406 77.4492 171.512 77.4413 170.581 77.4413H158.99H153.487ZM89.9971 15.1719H0.255859L13.076 34.7074H102.817L89.9971 15.1719ZM22.2333 46.9171H111.975L124.795 65.2316H35.0535L22.2333 46.9171Z" fill="#172554"/>
</svg>
